<svg width="1400" height="680" xmlns="http://www.w3.org/2000/svg">
 <defs>
  <!-- 教授图标 Symbol -->
  <!-- 小黄人图标 Symbol -->
  <symbol viewBox="0 0 1024 1024" id="icon-minion">
   <path id="svg_9" fill="#FFD900" d="m962.577,1024l-892.345,0l0,-521.709c0,-240.303 194.804,-435.106 435.106,-435.106l22.115,0c240.312,0 435.124,194.812 435.124,435.124l0,521.69l0,0.001z"/>
   <path id="svg_10" fill="#2B2B2D" d="m69.867,499.927l893.074,0l0,30.956l-893.074,0l0,-30.956z"/>
   <path id="svg_11" fill="#AFB0B4" d="m516.404,515.405m-247.883,0a247.883,247.883 0 1 0 495.767,0a247.883,247.883 0 1 0 -495.767,0z"/>
   <path id="svg_12" fill="#FDFDFF" d="m512,513.358m-175.871,0a175.871,175.871 0 1 0 351.743,0a175.871,175.871 0 1 0 -351.743,0z"/>
   <path id="svg_13" fill="#050505" d="m214.511,785.51s219.488,187.256 517.255,96.697c0,0 -1.535,121.256 -251.72,87.488s-271.675,-153.487 -265.535,-184.185z"/>
   <path id="svg_14" fill="#514217" d="m515.337,514.43m-75.976,0a75.976,75.976 0 1 0 151.953,0a75.976,75.976 0 1 0 -151.953,0z"/>
   <path id="svg_15" fill="#FFFFFF" d="m524.086,490.327m-20.985,0a20.985,20.985 0 1 0 41.97,0a20.985,20.985 0 1 0 -41.97,0z"/>
   <path id="svg_16" fill="#050505" d="m290.284,111.716s72.736,-53.495 186.423,-22.896c-47.323,-6.986 -124.485,-5.735 -186.02,55.905c0,0 63.505,-60.135 176.662,-46.487c-47.999,0.77 -118.97,14.608 -168.918,80.163c0,0 71.016,-88 219.094,-66.126l2.239,-9.583l-0.293,-0.065l4.127,-7.795s-126.378,-66.515 -233.314,16.885l0,-0.001zm473.602,33.01c-61.536,-61.64 -138.698,-62.891 -186.02,-55.906c113.687,-30.599 186.423,22.896 186.423,22.896c-106.935,-83.399 -233.314,-16.884 -233.314,-16.884l4.127,7.794c-0.18,0.039 -0.293,0.066 -0.293,0.066l2.239,9.583c148.077,-21.873 219.094,66.126 219.094,66.126c-49.948,-65.554 -120.92,-79.392 -168.918,-80.162c113.157,-13.648 176.662,46.487 176.662,46.487z"/>
  </symbol>
 </defs>
 <!-- Background -->
 <!-- Header -->
 <!-- CPU Card (Left) -->
 <!-- CPU Visuals -->
 <!-- GPU Card (Right) -->
 <!-- GPU Visuals -->
 <g>
  <title>Layer 1</title>
  <rect id="svg_17" fill="#0b1220" height="680" width="1400" class="bg"/>
  <text font-size="29" font-weight="bold" id="svg_18" font="700 29px 'Noto Sans SC','Microsoft YaHei',Arial,sans-serif" fill="#eaf2ff" y="62" x="60" class="title">控制单元（Control Unit） vs 运算单元（ALU）：CPU 与 GPU 的比例差异</text>
  <text font-style="italic" font-weight="normal" font-size="23" id="svg_19" font="700 29px 'Noto Sans SC','Microsoft YaHei',Arial,sans-serif" fill="#b9c8e6" y="107" x="63" class="t">CPU：少而精、控制强；                GPU：多而壮、计算密集（SIMT）。</text>
  <rect id="svg_20" stroke-width="2" stroke="#223a66" fill="#0f1b33" height="500" width="640" ry="18" rx="18" y="130" x="50" class="card"/>
  <text font-weight="bold" id="svg_22" font="700 18px 'Noto Sans SC','Microsoft YaHei',Arial" fill="#cfe3ff" y="170" x="79" class="h">CPU = 几个“教授”（博士）</text>
  <text id="svg_23" font="700 29px 'Noto Sans SC','Microsoft YaHei',Arial,sans-serif" fill="#b9c8e6" y="198" x="79" class="t">• 脑袋很大：控制单元强（分支预测、乱序执行）</text>
  <text id="svg_24" font="700 29px 'Noto Sans SC','Microsoft YaHei',Arial,sans-serif" fill="#b9c8e6" y="222" x="79" class="t">• 计算器很小：ALU 占比相对小</text>
  <text id="svg_25" font="700 29px 'Noto Sans SC','Microsoft YaHei',Arial,sans-serif" fill="#b9c8e6" y="246" x="79" class="t">• 每人独立大桌子：大 Cache（互不干扰）</text>
  <!-- Desk 1 -->
  <rect id="svg_28" stroke-width="2" stroke="#7dd3fc" fill="#152342" rx="6" height="80" width="220" y="510" x="100" class="desk"/>
  <rect id="svg_29" opacity="0.4" fill="#1f3b6d" rx="4" height="60" width="200" y="520" x="110" class="cache"/>
  <text id="svg_30" font="600 14px 'Noto Sans SC','Microsoft YaHei',Arial" fill="#9fb3da" y="555" x="120" class="label">独立 Cache / 桌子</text>
  <!-- Professor A -->
  <!-- Bubble A -->
  <rect id="svg_32" stroke-dasharray="4 0" stroke-width="2" stroke="#eaf2ff" fill="#0b1220" rx="10" height="40" width="140" y="295" x="105" class="bubble"/>
  <text id="svg_33" font="400 14px 'Noto Sans SC','Microsoft YaHei',Arial" fill="#eaf2ff" y="320" x="120" class="bubble-text">微积分推导…</text>
  <line id="svg_34" stroke-dasharray="2 2" stroke="#eaf2ff" y2="365" x2="185" y1="337" x1="165"/>
  <text id="svg_35" font="600 14px 'Noto Sans SC','Microsoft YaHei',Arial" fill="#9fb3da" y="505" x="185" class="label">教授 A</text>
  <!-- Desk 2 -->
  <rect id="svg_37" stroke-width="2" stroke="#7dd3fc" fill="#152342" rx="6" height="80" width="220" y="510" x="400" class="desk"/>
  <rect id="svg_38" opacity="0.4" fill="#1f3b6d" rx="4" height="60" width="200" y="520" x="410" class="cache"/>
  <text id="svg_39" font="600 14px 'Noto Sans SC','Microsoft YaHei',Arial" fill="#9fb3da" y="555" x="420" class="label">独立 Cache / 桌子</text>
  <!-- Professor B -->
  <!-- Bubble B -->
  <rect id="svg_41" stroke-dasharray="4 0" stroke-width="2" stroke="#eaf2ff" fill="#0b1220" rx="10" height="40" width="140" y="295" x="425" class="bubble"/>
  <text id="svg_42" font="400 14px 'Noto Sans SC','Microsoft YaHei',Arial" fill="#eaf2ff" y="320" x="440" class="bubble-text">写诗与逻辑…</text>
  <line id="svg_43" stroke-dasharray="2 2" stroke="#eaf2ff" y2="365" x2="495" y1="337" x1="485"/>
  <text id="svg_44" font="600 14px 'Noto Sans SC','Microsoft YaHei',Arial" fill="#9fb3da" y="505" x="485" class="label">教授 B</text>
  <text font-weight="bold" id="svg_45" font="700 29px 'Noto Sans SC','Microsoft YaHei',Arial,sans-serif" fill="#b9c8e6" y="650" x="210" class="t">特点：每个“核心”都能独立处理复杂逻辑（MIMD）</text>
  <rect id="svg_46" stroke-width="2" stroke="#223a66" fill="#0f1b33" height="500" width="640" ry="18" rx="18" y="130" x="710" class="card"/>
  <text font-weight="bold" id="svg_48" font="700 18px 'Noto Sans SC','Microsoft YaHei',Arial" fill="#cfe3ff" y="170" x="740" class="h">GPU = 成千上万“小黄人”（Minions）</text>
  <text id="svg_49" font="700 29px 'Noto Sans SC','Microsoft YaHei',Arial,sans-serif" fill="#b9c8e6" y="198" x="740" class="t">• 脑袋小：控制单元简单（不擅长复杂分支）</text>
  <text id="svg_50" font="700 29px 'Noto Sans SC','Microsoft YaHei',Arial,sans-serif" fill="#b9c8e6" y="222" x="740" class="t">• 肌肉发达：ALU 占比大（专注算数）</text>
  <text id="svg_51" font="700 29px 'Noto Sans SC','Microsoft YaHei',Arial,sans-serif" fill="#b9c8e6" y="246" x="740" class="t">• 挤在大教室：共享 Cache（SIMT）</text>
  <!-- Room Container -->
  <rect stroke="#a7f3d0" id="svg_53" stroke-width="2" fill="#112035" rx="18" height="330" width="575.00001" y="275" x="740" class="room"/>
  <!-- Instruction Banner (Moved to top inside room) -->
  <rect stroke="#eaf2ff" id="svg_55" stroke-width="2" fill="#0f1b33" rx="10" height="40" width="325.99999" y="310" x="941"/>
  <text id="svg_56" font="600 14px 'Noto Sans SC','Microsoft YaHei',Arial" fill="#9fb3da" y="335" x="955" class="label">Single Instruction：大家一起算 “1 + 1”</text>
  <!-- Shared Cache Label Area -->
  <rect id="svg_57" opacity="0.4" fill="#1f3b6d" rx="8" height="40" width="160" y="310" x="760" class="cache"/>
  <text id="svg_58" font="600 14px 'Noto Sans SC','Microsoft YaHei',Arial" fill="#9fb3da" y="335" x="770" class="label">共享 Cache (教室)</text>
  <!-- Commander (Scheduler) -->
  <rect id="svg_60" stroke-width="2" stroke="#eaf2ff" fill="#0b1220" rx="16" height="210" width="150" y="370" x="765"/>
  <text id="svg_61" font="700 18px 'Noto Sans SC','Microsoft YaHei',Arial" fill="#cfe3ff" y="400" x="781" class="h">指挥官</text>
  <text id="svg_62" font="600 14px 'Noto Sans SC','Microsoft YaHei',Arial" fill="#9fb3da" y="400" x="827" class="label">(Scheduler)</text>
  <!-- Megaphone -->
  <!-- Minions Grid with Ellipsis -->
  <!-- 4 Columns, 3 Rows of visible minions -->
  <!-- Row 1 -->
  <use id="svg_70" height="55" width="55" y="370" x="950" href="#icon-minion"/>
  <use id="svg_71" height="55" width="55" y="370" x="1020" href="#icon-minion"/>
  <use id="svg_72" height="55" width="55" y="370" x="1090" href="#icon-minion"/>
  <use id="svg_73" height="55" width="55" y="370" x="1160" href="#icon-minion"/>
  <!-- Row 1 Ellipsis -->
  <g id="svg_74">
   <circle id="svg_75" fill="#5a73a3" class="ellipsis" r="3" cy="395" cx="1235"/>
   <circle id="svg_76" fill="#5a73a3" class="ellipsis" r="3" cy="395" cx="1245"/>
   <circle id="svg_77" fill="#5a73a3" class="ellipsis" r="3" cy="395" cx="1255"/>
  </g>
  <!-- Row 2 -->
  <use id="svg_78" height="55" width="55" y="450" x="950" href="#icon-minion"/>
  <use id="svg_79" height="55" width="55" y="450" x="1020" href="#icon-minion"/>
  <use id="svg_80" height="55" width="55" y="450" x="1090" href="#icon-minion"/>
  <use id="svg_81" height="55" width="55" y="450" x="1160" href="#icon-minion"/>
  <!-- Row 2 Ellipsis -->
  <g id="svg_82">
   <circle id="svg_83" fill="#5a73a3" class="ellipsis" r="3" cy="475" cx="1235"/>
   <circle id="svg_84" fill="#5a73a3" class="ellipsis" r="3" cy="475" cx="1245"/>
   <circle id="svg_85" fill="#5a73a3" class="ellipsis" r="3" cy="475" cx="1255"/>
  </g>
  <!-- Row 3 -->
  <use id="svg_86" height="55" width="55" y="530" x="950" href="#icon-minion"/>
  <use id="svg_87" height="55" width="55" y="530" x="1020" href="#icon-minion"/>
  <use id="svg_88" height="55" width="55" y="530" x="1090" href="#icon-minion"/>
  <use id="svg_89" height="55" width="55" y="530" x="1160" href="#icon-minion"/>
  <!-- Row 3 Ellipsis -->
  <g id="svg_90">
   <circle id="svg_91" fill="#5a73a3" class="ellipsis" r="3" cy="555" cx="1235"/>
   <circle id="svg_92" fill="#5a73a3" class="ellipsis" r="3" cy="555" cx="1245"/>
   <circle id="svg_93" fill="#5a73a3" class="ellipsis" r="3" cy="555" cx="1255"/>
  </g>
  <!-- Bottom Vertical Ellipsis (Implies more rows) -->
  <g id="svg_94">
   <g id="svg_95">
    <circle id="svg_96" cx="975" fill="#5a73a3" class="ellipsis" r="2" cy="600"/>
    <circle id="svg_97" cx="975" fill="#5a73a3" class="ellipsis" r="2" cy="610"/>
    <circle id="svg_98" cx="975" fill="#5a73a3" class="ellipsis" r="2" cy="620"/>
   </g>
   <g id="svg_99">
    <circle id="svg_100" cx="1045" fill="#5a73a3" class="ellipsis" r="2" cy="600"/>
    <circle id="svg_101" cx="1045" fill="#5a73a3" class="ellipsis" r="2" cy="610"/>
    <circle id="svg_102" cx="1045" fill="#5a73a3" class="ellipsis" r="2" cy="620"/>
   </g>
   <g id="svg_103">
    <circle id="svg_104" cx="1115" fill="#5a73a3" class="ellipsis" r="2" cy="600"/>
    <circle id="svg_105" cx="1115" fill="#5a73a3" class="ellipsis" r="2" cy="610"/>
    <circle id="svg_106" cx="1115" fill="#5a73a3" class="ellipsis" r="2" cy="620"/>
   </g>
   <g id="svg_107">
    <circle id="svg_108" cx="1185" fill="#5a73a3" class="ellipsis" r="2" cy="600"/>
    <circle id="svg_109" cx="1185" fill="#5a73a3" class="ellipsis" r="2" cy="610"/>
    <circle id="svg_110" cx="1185" fill="#5a73a3" class="ellipsis" r="2" cy="620"/>
   </g>
  </g>
  <text style="cursor: move;" font-weight="bold" id="svg_111" font="600 14px 'Noto Sans SC','Microsoft YaHei',Arial" fill="#9fb3da" y="650" x="861" class="label">几千个线程：同一条指令下做同样的算数（SIMT）...</text>
  <g stroke="null">
   <path stroke="null" p-id="5178" fill="#1765B1" d="m817.08891,495.12398l4.73911,0l1.02663,-5.03984l-6.79238,0l1.02663,5.03984zm0.69479,-52.42055l1.7318,-0.91256l1.72143,0.91256l-0.33184,-1.91846l1.38959,-1.35848l-1.91846,-0.27999l-0.86071,-1.74217l-0.86071,1.74217l-1.92883,0.27999l1.38959,1.35848l-0.33184,1.91846zm20.906,32.95599l0.06222,-0.18666l0.19703,-0.05185c1.8355,-0.50813 3.83691,-1.67995 5.35094,-3.15249c1.65921,-1.61773 2.58214,-3.40137 2.58214,-5.02947l0,-0.03111c0.30073,-3.73321 -1.46218,-6.79238 -4.52134,-7.80864l-0.27999,-0.09333l0,-0.63257c0,-0.5185 -0.23851,-0.75701 -0.57035,-1.07848l-0.11407,-0.11407l0,-0.17629c0,-0.34221 -0.1037,-0.70516 -0.19703,-1.01626c-0.08296,-0.24888 -0.12444,-0.45628 -0.14518,-0.63257l-0.91256,0l0.69479,-0.68442c0.15555,-0.15555 0.33184,-0.33184 0.44591,-0.49776c-1.65921,-0.52887 -8.86638,-2.58214 -22.08818,-2.58214c-13.21143,0 -20.41861,2.05327 -22.08818,2.58214c0.11407,0.16592 0.29036,0.35258 0.44591,0.49776l0.11407,0.11407l0,0.60146l-0.04148,0.08296c-0.30073,0.59109 -0.30073,1.21329 -0.30073,1.86661l0,0.17629l-0.11407,0.12444c-0.33184,0.32147 -0.55998,0.55998 -0.55998,1.07848l0,0.63257l-0.27999,0.09333c-2.95546,0.98515 -4.86355,3.93024 -4.86355,7.49754c0,2.23993 1.38959,4.03395 2.57177,5.14354c1.48292,1.41033 3.43248,2.50955 5.35094,3.03842l0.19703,0.05185l0.06222,0.19703c1.8355,4.96725 6.10795,8.04715 9.35378,9.76858c3.9095,2.05327 7.98493,2.99694 10.13153,2.99694c2.13623,0 6.23239,-0.94367 10.13153,-2.99694c3.27693,-1.74217 7.54939,-4.82207 9.38489,-9.77895zm-36.86549,-16.7165l0,-2.55103s10.47374,-1.49329 17.69129,-1.49329s17.69129,1.49329 17.69129,1.49329l0,2.55103s-8.59676,4.47986 -17.69129,4.47986c-9.09452,0 -17.69129,-4.47986 -17.69129,-4.47986z"/>
   <path stroke="null" p-id="5179" fill="#1765B1" d="m797.61397,453.66456c5.0191,-2.90361 12.94181,-4.78059 21.84967,-4.78059c8.91823,0 16.84094,1.87698 21.84967,4.78059c4.45912,-2.32289 7.15533,-5.36131 7.15533,-8.69009c0,-7.30051 -12.99366,-13.2218 -29.01537,-13.2218s-28.99463,5.91092 -28.99463,13.21143c0,3.32878 2.70658,6.3672 7.15533,8.70046zm16.89279,-15.85579l0.03111,-0.26962l0.26962,0c0.11407,0 1.02663,-0.09333 1.15107,-1.2444l0.03111,-0.2074l0.17629,-0.09333c2.54066,-0.97478 3.03842,-1.15107 3.15249,-1.21329l0.06222,-0.03111l0.09333,0c0.09333,0 0.09333,0 3.33915,1.21329l0.17629,0.09333l0.03111,0.2074c0.14518,1.21329 1.11996,1.27551 1.15107,1.27551l0.26962,0l0.03111,0.26962c0,0.06222 0.67405,6.59535 -4.78059,8.75231l-0.16592,0.05185c-0.02074,0.01037 -0.04148,0.01037 -0.06222,0l-0.18666,-0.05185c-5.48575,-2.15697 -4.80133,-8.69009 -4.77022,-8.75231zm42.63123,60.00105c-0.5185,-0.33184 -1.00589,-0.64294 -1.49329,-0.95404c0.02074,-0.01037 0.04148,-0.02074 0.07259,-0.03111c-1.10959,-0.68442 -2.1466,-1.317 -3.15249,-1.92883c-9.22934,-5.85907 -13.80252,-8.60713 -18.25127,-9.88265c0.12444,0.9333 0.2074,1.87698 0.2074,2.84139c0,8.33751 -4.67689,15.35803 -11.04409,17.49426l-1.63847,-8.81453l-4.73911,0l-1.63847,8.78342c-6.32572,-2.16734 -10.96113,-9.16711 -10.96113,-17.46315c0,-0.96441 0.08296,-1.91846 0.2074,-2.84139c-4.44875,1.27551 -9.02193,4.02358 -18.25127,9.88265c-1.00589,0.61183 -2.0429,1.2444 -3.15249,1.92883c0.02074,0.01037 0.04148,0.02074 0.07259,0.03111c-0.49776,0.3111 -0.97478,0.6222 -1.49329,0.95404c-5.76574,3.56729 -9.16711,20.89563 -9.17748,25.67622c0,11.47963 19.59937,8.81453 44.2697,8.6175c0.52887,0 1.05774,-0.01037 1.58662,-0.01037l1.88735,0c0.52887,0 1.05774,0 1.58662,0.01037c24.68069,0.19703 44.2697,2.86213 44.2697,-8.6175c-0.01037,-4.78059 -3.41174,-22.10892 -9.16711,-25.67622z"/>
  </g>
  <g id="svg_114">
   <g stroke="null">
    <!-- Generator: Adobe Illustrator 30.0.0, SVG Export Plug-In . SVG Version: 2.1.1 Build 123)  -->

    <path stroke="null" fill="#fad97f" d="m850.31294,438.59048l0,26.46457c0,1.22897 2.1572,2.2318 4.81261,2.2318l19.74338,0l0,9.64985s25.13372,-9.31311 25.13372,-9.31311l0.91164,-0.33674l43.96545,0c2.65012,0 4.81261,-1.00038 4.81261,-2.2318l0,-26.46457c0,-1.25109 -2.189,-2.2318 -4.97692,-2.2318l-89.58988,0c-2.65012,0 -4.81261,1.00038 -4.81261,2.2318z" class="st1"/>
    <path stroke="null" d="m846.995,438.59048l0,26.46457c0,2.07695 3.65186,3.77047 8.13056,3.77047l16.42543,0l0,11.30895s30.52405,-11.30895 30.52405,-11.30895l42.7994,0c4.4787,0 8.13056,-1.69352 8.13056,-3.77047l0,-26.46457c0,-2.07695 -3.65186,-3.77047 -8.29487,-3.77047l-89.58458,0c-4.4787,0 -8.13056,1.69352 -8.13056,3.77047zm3.31795,0c0,-1.22897 2.1572,-2.2318 4.81261,-2.2318l89.57928,0c2.78792,0 4.97692,0.98072 4.97692,2.2318l0,26.46457c0,1.22897 -2.1572,2.2318 -4.81261,2.2318l-43.96545,0s-0.90634,0.33674 -0.90634,0.33674l-25.13372,9.31311l0,-9.64985s-19.74338,0 -19.74338,0c-2.65012,0 -4.81261,-1.00038 -4.81261,-2.2318l0,-26.46457l0.0053,0z"/>
   </g>
   <text font-size="13" font-weight="bold" id="svg_68" font="600 14px 'Noto Sans SC','Microsoft YaHei',Arial" fill="#000000" y="456" x="855" class="label">“一起做加法！”</text>
  </g>
  <g id="svg_240" stroke="null">
   <path id="svg_220" stroke="null" p-id="13503" fill="#FABBA1" d="m529.18969,455.38567l-0.07931,0.11207l0.09311,-0.09311l-0.0138,-0.01896zm5.57077,-6.48113c-0.57415,-0.38966 -1.0345,-0.88105 -1.37071,-1.47416c-0.30345,-0.53621 -0.48966,-1.13277 -0.58277,-1.77933c-1.13277,0.07758 -2.30175,0.11724 -3.50694,0.11724c-1.38623,0 -2.72418,-0.06035 -4.01385,-0.17759a5.10524,5.10524 0 0 1 -0.27242,0.78105c-0.29655,0.6638 -0.82415,1.42588 -1.75692,2.02761c2.51038,3.58109 5.27249,5.91388 5.31042,5.94664l0.6207,0.51897l0.6207,-0.51897c0.03965,-0.03276 2.54658,-2.14831 4.95179,-5.44146z"/>
   <path id="svg_221" stroke="null" p-id="13504" fill="#132D65" d="m525.0155,446.37002a5.10524,5.10524 0 0 0 0.27241,-0.78104c-0.82932,-0.07587 -1.63968,-0.17587 -2.42762,-0.29656c-0.01379,0.03276 -0.02414,0.06724 -0.03793,0.09828c-0.18104,0.40518 -0.46552,0.73277 -0.85863,0.98794c0.41207,0.70863 0.85001,1.38278 1.29484,2.019c0.93278,-0.60001 1.46037,-1.36382 1.75693,-2.02762zm9.74496,2.53452c0.45518,-0.62242 0.90691,-1.28967 1.33623,-1.98968c-0.38622,-0.26208 -0.53794,-0.53105 -0.61553,-0.66898c-0.13621,-0.24138 -0.22931,-0.51725 -0.28621,-0.82415c-0.77587,0.09483 -1.57244,0.17242 -2.38624,0.22759c0.09138,0.64656 0.27931,1.24312 0.58277,1.77934c0.33621,0.59483 0.79483,1.08622 1.36898,1.47588z"/>
   <path id="svg_222" stroke="null" p-id="13505" fill="#FABBA1" d="m538.43293,442.4079c4.52937,-1.04485 8.14321,-2.92246 10.53118,-5.53284c2.63969,-2.88625 3.78109,-6.57423 3.3897,-10.96395l-0.13448,-1.51381l1.50347,0.21897c0.60001,0.08793 1.15863,0.12931 1.70692,0.12931c2.63969,0 5.66215,-1.75003 7.70183,-4.46041c1.45692,-1.93451 2.07589,-3.9604 1.6552,-5.41904c-0.79139,-2.74832 -2.02762,-3.31212 -5.83112,-4.06902c-0.55001,1.81726 -1.07933,3.38625 -1.51726,4.70006c-0.2638,0.79139 -1.41899,0.65518 -1.49485,-0.17586c-0.84139,-9.35703 -2.42417,-25.90209 -12.75191,-28.71937c-9.9191,9.9191 -32.33149,18.12439 -37.84191,12.61397c-1.10174,11.02084 -3.45177,22.48307 -4.20523,17.41921c-0.26207,-1.75865 -0.63104,-3.74488 -1.15174,-5.90871c-3.82764,0.73795 -5.21559,1.19485 -6.19492,4.1811c-0.44483,1.35864 0.09828,3.28625 1.45347,5.15697c2.02934,2.80004 5.21042,4.6811 7.91736,4.6811c0.54828,0 1.10691,-0.04138 1.70692,-0.12931l1.37415,-0.19828l0,1.38795c0,12.94846 11.90534,17.56059 23.04688,17.56059c3.28108,0 6.30526,-0.31724 9.00875,-0.92932l0.03965,-0.09311l0.08794,0.0638zm2.8828,-27.57453c1.98968,0 3.60349,1.2776 3.60349,2.85349s-1.61381,2.85349 -3.60349,2.85349s-3.6035,-1.27761 -3.6035,-2.85349s1.61209,-2.85349 3.6035,-2.85349zm-27.63143,2.85349c0,-1.57589 1.61382,-2.85349 3.6035,-2.85349s3.6035,1.2776 3.6035,2.85349s-1.61382,2.85349 -3.6035,2.85349c-1.98968,-0.00173 -3.6035,-1.27761 -3.6035,-2.85349zm11.71224,17.50714a1.20226,1.20226 0 0 1 -0.76036,-1.51899c0.20862,-0.62759 0.88794,-0.9707 1.51726,-0.76035c0.0638,0.02069 3.35005,1.05691 7.10183,-0.01552c0.63794,-0.18448 1.30346,0.18794 1.4845,0.82415c0.18276,0.63794 -0.18793,1.30347 -0.82415,1.48451c-1.52243,0.43448 -2.97073,0.58104 -4.22592,0.58104c-2.46383,0.00172 -4.18627,-0.55863 -4.29316,-0.59484z"/>
   <path id="svg_223" stroke="null" p-id="13506" fill="#132D65" d="m558.95735,410.79538c3.80351,0.75518 5.03973,1.32071 5.83112,4.06902c0.41897,1.45865 -0.2,3.48454 -1.65519,5.41905c-2.03969,2.70866 -5.06215,4.4604 -7.70184,4.4604c-0.54828,0 -1.10691,-0.04138 -1.70692,-0.12931l-1.50347,-0.21897l0.13449,1.51382c0.39138,4.38799 -0.74829,8.0777 -3.38971,10.96395c-2.38796,2.61038 -6.00353,4.48799 -10.53118,5.53283l2.3621,1.88968c4.16558,-1.21208 7.52597,-3.16039 9.94325,-5.8018c2.77417,-3.0328 4.17419,-6.93803 4.08799,-11.36396c0.20345,0.00863 0.40345,0.0138 0.60518,0.0138c3.36729,0 7.1432,-2.12589 9.62082,-5.41732c1.93624,-2.57245 2.6828,-5.31732 2.04486,-7.52942c-1.17588,-4.08799 -3.70005,-4.96903 -7.4708,-5.72249c-0.22414,0.81553 -0.44828,1.58968 -0.6707,2.32072zm-38.92641,31.54527l0.62242,1.45175c0.17587,0.41035 0.3638,0.81036 0.56208,1.20519c0.53794,0.11034 1.08622,0.20862 1.64658,0.29483c0.78794,0.12242 1.5983,0.22242 2.42762,0.29656a44.3627,44.3627 0 0 0 4.01385,0.17758c1.20519,0 2.37417,-0.03965 3.50694,-0.11724c0.81553,-0.05517 1.61037,-0.13276 2.38624,-0.22759c0.64656,-0.07931 1.27761,-0.17241 1.89658,-0.27931c0.22414,-0.44139 0.43966,-0.89139 0.63622,-1.35175l0.58104,-1.35691c-2.70176,0.61208 -5.72594,0.92932 -9.00875,0.92932c-11.14153,0 -23.04687,-4.61386 -23.04687,-17.56059l0,-1.38795l-1.37416,0.19828c-0.60173,0.08793 -1.15864,0.12931 -1.70692,0.12931c-2.70694,0 -5.88802,-1.88106 -7.91736,-4.6811c-1.35519,-1.87072 -1.8983,-3.79833 -1.45346,-5.15697c0.9776,-2.98625 2.36555,-3.44315 6.19491,-4.18109a69.92685,69.92685 0 0 0 -0.60173,-2.33107c-4.01213,0.78277 -6.50009,1.56209 -7.87598,5.76215c-0.69483,2.11899 -0.04137,4.78455 1.79141,7.3139c2.49659,3.4466 6.36905,5.67421 9.86221,5.67421c0.23793,0 0.47587,-0.00689 0.71725,-0.01896c0.48449,8.25874 5.54663,14.24503 13.93295,16.97955l2.20693,-1.7621z"/>
   <path id="svg_224" stroke="null" p-id="13507" fill="#152E66" d="m513.68603,417.68686a3.6035,2.85349 0 1 0 7.20699,0a3.6035,2.85349 0 1 0 -7.20699,0z"/>
   <path id="svg_225" stroke="null" p-id="13508" fill="#152E66" d="m537.71223,417.68686a3.6035,2.85349 0 1 0 7.20699,0a3.6035,2.85349 0 1 0 -7.20699,0z"/>
   <path id="svg_226" stroke="null" p-id="13509" fill="#132D65" d="m534.73977,433.72329c-0.18276,-0.63794 -0.84656,-1.00863 -1.4845,-0.82415c-3.75006,1.07243 -7.03631,0.03449 -7.10183,0.01552c-0.62932,-0.21035 -1.30691,0.13276 -1.51726,0.76035c-0.21035,0.62932 0.13104,1.31037 0.76036,1.51899c0.10689,0.03621 1.83106,0.59656 4.29316,0.59656c1.25519,0 2.70349,-0.14483 4.22592,-0.58104a1.20243,1.20243 0 0 0 0.82415,-1.48623z"/>
   <path id="svg_227" stroke="null" p-id="13510" fill="#152E66" d="m499.9979,410.72641c0.5207,2.16383 0.88967,4.15006 1.15174,5.90871c0.75346,5.06386 3.10177,-6.39837 4.20523,-17.41921c5.51043,5.51042 27.92281,-2.69487 37.84192,-12.61397c10.32773,2.81728 11.91051,19.36234 12.7519,28.71937c0.07414,0.83104 1.23105,0.96725 1.49485,0.17586c0.43621,-1.31381 0.96725,-2.8828 1.51726,-4.70006c0.2207,-0.73277 0.44656,-1.50692 0.66898,-2.319c1.43105,-5.21215 2.78969,-12.04845 2.78969,-20.3365c0,-16.53126 -19.83821,-19.83648 -19.83821,-19.83648s-8.81737,-6.61217 -19.83821,-5.51043c-16.53127,0 -34.16428,20.93995 -27.55211,34.16428c1.88968,4.07419 3.24142,7.94494 4.20695,11.43809c0.21897,0.79656 0.41897,1.57416 0.60001,2.32934z"/>
   <path id="svg_228" stroke="null" p-id="13511" fill="#37547F" d="m560.99359,450.64077c-2.42245,-0.60518 -10.97257,-1.22415 -16.84507,-1.59312l-8.89667,14.82607l-2.00003,-2.79832l-2.169,4.21385l-0.40518,0l3.11039,18.99855c15.87264,-1.20174 30.40388,-7.20528 42.14543,-16.56058c-1.89486,-6.36216 -6.05699,-14.91573 -14.93987,-17.08645zm-32.88495,14.64848l-0.43276,0l-2.32762,-4.52247l-2.219,3.10866l-9.09151,-15.15194c-6.2156,0.05345 -15.32952,0.28966 -17.9037,0.93277l-0.13276,0.02587c-6.81044,0.91036 -11.84499,10.50704 -14.99849,18.96751c12.49501,9.56565 28.0004,15.39849 44.84719,15.83298l2.25865,-19.19338z"/>
   <path id="svg_229" stroke="null" p-id="13512" fill="#132D65" d="m561.56946,448.30798c-2.69831,-0.67415 -11.93465,-1.33105 -17.88474,-1.6983l1.30175,1.04139l-0.83795,1.39658c5.8725,0.36897 14.4209,0.98794 16.84507,1.59312c8.88288,2.17072 13.04501,10.72429 14.94159,17.08645c0.69139,-0.55001 1.37243,-1.11381 2.04486,-1.68623c-2.16728,-6.77768 -6.77424,-15.3778 -16.41058,-17.73301zm-65.56817,1.37416l0.13276,-0.02587c2.5759,-0.64311 11.6881,-0.87932 17.9037,-0.93277l-0.64311,-1.07243l1.66899,-1.33622c-4.45179,0.02931 -16.05367,0.18276 -19.44683,0.99484c-7.71045,1.0845 -13.19156,10.94671 -16.59678,19.77097c0.65173,0.53449 1.31209,1.05691 1.98106,1.57071c3.15522,-8.46219 8.18977,-18.05887 15.00021,-18.96923z"/>
   <path id="svg_230" stroke="null" p-id="13513" fill="#E3F0FC" d="m516.53434,448.21488l6.76906,11.28119l2.89315,-4.05178c-1.53451,-1.43623 -4.83973,-4.82593 -7.08976,-9.28634l-2.57245,2.05693z"/>
   <path id="svg_231" stroke="null" p-id="13514" fill="#132D65" d="m513.39464,447.65107l0.64311,1.07243l9.09151,15.15022l2.219,-3.10867l-0.51208,-0.99484l4.2742,-4.2742l0.07931,-0.11207l-0.23276,-0.32586l0.23449,-0.19483l-0.6207,-0.51898c-0.03793,-0.03276 -2.80004,-2.36555 -5.31042,-5.94663c-0.44484,-0.63622 -0.88277,-1.31037 -1.29485,-2.019c-0.26035,-0.44828 -0.51207,-0.90863 -0.75001,-1.38278c-0.19828,-0.39483 -0.38621,-0.79483 -0.56208,-1.20519l-0.62242,-1.45174l-2.20693,1.76554l-2.75866,2.20693l-1.67071,1.33967zm12.80191,7.79322l-2.89315,4.05178l-6.76906,-11.28119l2.57245,-2.05693c2.25003,4.46041 5.55525,7.85011 7.08976,9.28634z"/>
   <path id="svg_232" stroke="null" p-id="13515" fill="#E3F0FC" d="m541.84677,448.21488l-2.57073,-2.05693c-2.25175,4.46041 -5.55525,7.85011 -7.09148,9.28634l2.89315,4.05178l6.76906,-11.28119z"/>
   <path id="svg_233" stroke="null" p-id="13516" fill="#132D65" d="m538.43293,442.4079l-0.08276,-0.06552l-0.03966,0.0931l-0.58104,1.35692c-0.19828,0.46035 -0.41208,0.91036 -0.63622,1.35174a25.69864,25.69864 0 0 1 -0.99484,1.77072c-0.43104,0.70173 -0.88105,1.36726 -1.33623,1.98968c-2.40693,3.29315 -4.91386,5.41042 -4.95007,5.43973l-0.62069,0.51898l-0.23449,0.19483l0.23276,0.32586l0.0138,0.01897l0.17758,-0.17759l4.5449,4.54489l-0.6707,1.30347l2.00003,2.79831l8.89667,-14.82607l0.83795,-1.39657l-1.30175,-1.04139l-2.88969,-2.31211l-2.36555,-1.88795zm-6.24837,13.03639c1.53451,-1.43623 4.83973,-4.82593 7.09148,-9.28634l2.57073,2.05693l-6.76734,11.28119l-2.89487,-4.05178z"/>
   <path id="svg_234" stroke="null" p-id="13517" fill="#152E66" d="m533.92424,459.77194l-4.54489,-4.5449l-0.17586,0.17759l-0.09311,0.09311l-4.2742,4.2742l0.51208,0.99311l2.32762,4.5242l0.43276,0l0.07069,-0.60173l2.40176,0l0.09828,0.60173l0.40518,0l2.16899,-4.21385l0.6707,-1.30346z"/>
   <path id="svg_235" stroke="null" p-id="13518" fill="#152E66" d="m530.67937,465.28925l-0.09828,-0.6l-2.40348,0l-0.07069,0.6l-2.25865,19.1951a78.8818,78.8818 0 0 0 7.93976,-0.19655l-3.10866,-18.99855z"/>
   <path id="svg_236" stroke="null" p-id="13519" opacity="0.33" fill="#E3F0FC" d="m523.8741,426.05594l-19.54166,0c-1.40346,0 -2.54313,-1.13795 -2.54313,-2.54314l0,-11.13291c0,-1.40347 1.13794,-2.54314 2.54313,-2.54314l19.54166,0c1.40347,0 2.54314,1.13794 2.54314,2.54314l0,11.13291c0,1.40519 -1.13795,2.54314 -2.54314,2.54314z"/>
   <path id="svg_237" stroke="null" p-id="13520" opacity="0.33" fill="#E3F0FC" d="m553.90728,426.05594l-19.54165,0c-1.40347,0 -2.54314,-1.13795 -2.54314,-2.54314l0,-11.13291c0,-1.40347 1.13795,-2.54314 2.54314,-2.54314l19.54165,0c1.40347,0 2.54314,1.13794 2.54314,2.54314l0,11.13291c0,1.40519 -1.13794,2.54314 -2.54314,2.54314z"/>
   <path id="svg_238" stroke="null" p-id="13521" fill="#132D65" d="m523.8741,426.65767l-19.54166,0c-1.73278,0 -3.14314,-1.41036 -3.14314,-3.14314l0,-11.13292c0,-1.73278 1.41036,-3.14315 3.14314,-3.14315l19.54166,0c1.73278,0 3.14315,1.41037 3.14315,3.14315l0,11.13292c0,1.73278 -1.40864,3.14314 -3.14315,3.14314zm-19.54166,-16.21747c-1.0707,0 -1.9414,0.87071 -1.9414,1.94141l0,11.13292c0,1.0707 0.8707,1.9414 1.9414,1.9414l19.54166,0c1.0707,0 1.94141,-0.8707 1.94141,-1.9414l0,-11.13292c0,-1.0707 -0.87071,-1.94141 -1.94141,-1.94141l-19.54166,0zm49.57484,16.21747l-19.54165,0c-1.73279,0 -3.14315,-1.41036 -3.14315,-3.14314l0,-11.13292c0,-1.73278 1.41036,-3.14315 3.14315,-3.14315l19.54165,0c1.73279,0 3.14315,1.41037 3.14315,3.14315l0,11.13292c0,1.73278 -1.40864,3.14314 -3.14315,3.14314zm-19.54165,-16.21747c-1.07071,0 -1.94141,0.87071 -1.94141,1.94141l0,11.13292c0,1.0707 0.8707,1.9414 1.94141,1.9414l19.54165,0c1.07071,0 1.94141,-0.8707 1.94141,-1.9414l0,-11.13292c0,-1.0707 -0.8707,-1.94141 -1.94141,-1.94141l-19.54165,0z"/>
   <path id="svg_239" stroke="null" p-id="13522" fill="#132D65" d="m526.41724,412.24195l5.40525,0l0,1.20174l-5.40525,0l0,-1.20174z"/>
  </g>
  <g stroke="null">
   <path stroke="null" p-id="13503" fill="#FABBA1" d="m220.18969,451.38567l-0.07931,0.11207l0.0931,-0.0931l-0.01379,-0.01897zm5.57077,-6.48113c-0.57415,-0.38966 -1.0345,-0.88105 -1.37071,-1.47416c-0.30345,-0.53621 -0.48966,-1.13277 -0.58277,-1.77934c-1.13277,0.07759 -2.30176,0.11724 -3.50695,0.11724c-1.38623,0 -2.72418,-0.06035 -4.01385,-0.17759a5.10524,5.10524 0 0 1 -0.27242,0.78105c-0.29656,0.6638 -0.82415,1.42588 -1.75692,2.02761c2.51038,3.58109 5.27249,5.91388 5.31042,5.94664l0.6207,0.51897l0.6207,-0.51897c0.03966,-0.03276 2.54659,-2.14831 4.95179,-5.44146z"/>
   <path stroke="null" p-id="13504" fill="#132D65" d="m216.0155,442.37002a5.10524,5.10524 0 0 0 0.27242,-0.78105c-0.82932,-0.07586 -1.63968,-0.17586 -2.42762,-0.29656c-0.01379,0.03276 -0.02414,0.06724 -0.03793,0.09828c-0.18104,0.40518 -0.46552,0.73277 -0.85863,0.98794c0.41207,0.70863 0.85001,1.38278 1.29485,2.01899c0.93277,-0.60001 1.46037,-1.36381 1.75692,-2.02761zm9.74497,2.53452c0.45518,-0.62242 0.90691,-1.28967 1.33623,-1.98968c-0.38621,-0.26207 -0.53794,-0.53104 -0.61553,-0.66897c-0.13621,-0.24138 -0.22931,-0.51725 -0.28621,-0.82415c-0.77587,0.09483 -1.57244,0.17242 -2.38624,0.22759c0.09138,0.64656 0.27931,1.24312 0.58277,1.77934c0.33621,0.59484 0.79484,1.08622 1.36898,1.47588z"/>
   <path stroke="null" p-id="13505" fill="#FABBA1" d="m229.43293,438.4079c4.52937,-1.04484 8.14322,-2.92246 10.53118,-5.53284c2.63969,-2.88625 3.78109,-6.57423 3.3897,-10.96395l-0.13448,-1.51381l1.50347,0.21897c0.60001,0.08793 1.15864,0.12931 1.70692,0.12931c2.63969,0 5.66215,-1.75002 7.70183,-4.46041c1.45692,-1.93451 2.07589,-3.9604 1.6552,-5.41904c-0.79139,-2.74831 -2.02761,-3.31212 -5.83112,-4.06902c-0.55001,1.81727 -1.07933,3.38625 -1.51726,4.70007c-0.2638,0.79139 -1.41899,0.65518 -1.49485,-0.17586c-0.84139,-9.35703 -2.42417,-25.90209 -12.7519,-28.71937c-9.91911,9.91911 -32.33149,18.12439 -37.84191,12.61397c-1.10174,11.02085 -3.45177,22.48308 -4.20523,17.41921c-0.26207,-1.75865 -0.63104,-3.74488 -1.15174,-5.9087c-3.82764,0.73794 -5.21559,1.19484 -6.19492,4.18109c-0.44483,1.35864 0.09828,3.28625 1.45347,5.15697c2.02934,2.80004 5.21042,4.6811 7.91735,4.6811c0.54828,0 1.10691,-0.04138 1.70692,-0.12931l1.37416,-0.19828l0,1.38795c0,12.94846 11.90534,17.56059 23.04688,17.56059c3.28108,0 6.30526,-0.31725 9.00875,-0.92932l0.03966,-0.0931l0.08793,0.06379zm2.8828,-27.57453c1.98968,0 3.6035,1.2776 3.6035,2.85349s-1.61382,2.85349 -3.6035,2.85349s-3.6035,-1.2776 -3.6035,-2.85349s1.61209,-2.85349 3.6035,-2.85349zm-27.63142,2.85349c0,-1.57588 1.61382,-2.85349 3.6035,-2.85349s3.6035,1.2776 3.6035,2.85349s-1.61382,2.85349 -3.6035,2.85349c-1.98968,-0.00172 -3.6035,-1.2776 -3.6035,-2.85349zm11.71223,17.50714a1.20226,1.20226 0 0 1 -0.76036,-1.51899c0.20862,-0.6276 0.88794,-0.9707 1.51726,-0.76036c0.06379,0.02069 3.35005,1.05691 7.10182,-0.01552c0.63794,-0.18449 1.30347,0.18793 1.4845,0.82415c0.18276,0.63794 -0.18793,1.30347 -0.82415,1.4845c-1.52244,0.43449 -2.97073,0.58104 -4.22592,0.58104c-2.46383,0.00172 -4.18627,-0.55863 -4.29316,-0.59484z"/>
   <path stroke="null" p-id="13506" fill="#132D65" d="m249.95735,406.79538c3.8035,0.75518 5.03973,1.32071 5.83112,4.06902c0.41897,1.45864 -0.2,3.48453 -1.6552,5.41904c-2.03968,2.70866 -5.06214,4.46041 -7.70183,4.46041c-0.54828,0 -1.10691,-0.04138 -1.70692,-0.12931l-1.50347,-0.21897l0.13448,1.51381c0.39138,4.38799 -0.74829,8.0777 -3.3897,10.96395c-2.38796,2.61038 -6.00353,4.48799 -10.53118,5.53284l2.3621,1.88968c4.16558,-1.21209 7.52597,-3.16039 9.94324,-5.80181c2.77418,-3.0328 4.1742,-6.93803 4.08799,-11.36395c0.20345,0.00862 0.40345,0.01379 0.60518,0.01379c3.36729,0 7.1432,-2.12589 9.62083,-5.41732c1.93623,-2.57245 2.6828,-5.31732 2.04486,-7.52942c-1.17588,-4.08799 -3.70005,-4.96904 -7.4708,-5.72249c-0.22414,0.81553 -0.44828,1.58968 -0.6707,2.32072zm-38.92641,31.54527l0.62242,1.45174c0.17586,0.41035 0.3638,0.81036 0.56208,1.20519c0.53794,0.11035 1.08622,0.20862 1.64657,0.29483c0.78794,0.12242 1.5983,0.22242 2.42762,0.29656a44.3627,44.3627 0 0 0 4.01385,0.17759c1.20519,0 2.37417,-0.03966 3.50695,-0.11724c0.81553,-0.05517 1.61037,-0.13276 2.38624,-0.22759c0.64656,-0.07931 1.2776,-0.17242 1.89658,-0.27931c0.22414,-0.44139 0.43966,-0.89139 0.63622,-1.35174l0.58104,-1.35692c-2.70176,0.61208 -5.72594,0.92932 -9.00875,0.92932c-11.14154,0 -23.04688,-4.61386 -23.04688,-17.56059l0,-1.38795l-1.37416,0.19828c-0.60173,0.08793 -1.15864,0.12931 -1.70692,0.12931c-2.70693,0 -5.88801,-1.88106 -7.91735,-4.6811c-1.35519,-1.87072 -1.8983,-3.79833 -1.45347,-5.15697c0.9776,-2.98625 2.36555,-3.44315 6.19492,-4.18109a69.92685,69.92685 0 0 0 -0.60173,-2.33107c-4.01213,0.78277 -6.50009,1.56209 -7.87597,5.76215c-0.69484,2.119 -0.04138,4.78455 1.7914,7.3139c2.49659,3.4466 6.36906,5.67422 9.86221,5.67422c0.23793,0 0.47587,-0.0069 0.71725,-0.01897c0.48449,8.25874 5.54663,14.24503 13.93296,16.97955l2.20693,-1.76209z"/>
   <path stroke="null" p-id="13507" fill="#152E66" d="m204.68603,413.68686a3.6035,2.85349 0 1 0 7.207,0a3.6035,2.85349 0 1 0 -7.207,0z"/>
   <path stroke="null" p-id="13508" fill="#152E66" d="m228.71223,413.68686a3.6035,2.85349 0 1 0 7.207,0a3.6035,2.85349 0 1 0 -7.207,0z"/>
   <path stroke="null" p-id="13509" fill="#132D65" d="m225.73977,429.72329c-0.18276,-0.63794 -0.84656,-1.00863 -1.4845,-0.82415c-3.75005,1.07243 -7.03631,0.03448 -7.10182,0.01552c-0.62932,-0.21035 -1.30692,0.13276 -1.51726,0.76036c-0.21035,0.62932 0.13104,1.31036 0.76036,1.51899c0.1069,0.03621 1.83106,0.59656 4.29316,0.59656c1.25519,0 2.70349,-0.14483 4.22592,-0.58104a1.20243,1.20243 0 0 0 0.82415,-1.48623z"/>
   <path stroke="null" p-id="13510" fill="#152E66" d="m190.9979,406.72641c0.5207,2.16382 0.88967,4.15006 1.15174,5.9087c0.75346,5.06386 3.10177,-6.39837 4.20523,-17.41921c5.51042,5.51042 27.92281,-2.69487 37.84191,-12.61397c10.32773,2.81728 11.91051,19.36234 12.7519,28.71937c0.07414,0.83105 1.23105,0.96726 1.49485,0.17586c0.43621,-1.31381 0.96726,-2.8828 1.51726,-4.70007c0.22069,-0.73277 0.44656,-1.50692 0.66897,-2.319c1.43105,-5.21214 2.78969,-12.04845 2.78969,-20.33649c0,-16.53127 -19.83821,-19.83649 -19.83821,-19.83649s-8.81737,-6.61216 -19.83821,-5.51042c-16.53127,0 -34.16428,20.93995 -27.55211,34.16428c1.88968,4.0742 3.24143,7.94494 4.20696,11.43809c0.21897,0.79656 0.41897,1.57416 0.60001,2.32934z"/>
   <path stroke="null" p-id="13511" fill="#37547F" d="m251.99359,446.64077c-2.42245,-0.60518 -10.97257,-1.22416 -16.84507,-1.59313l-8.89668,14.82607l-2.00003,-2.79832l-2.169,4.21385l-0.40518,0l3.11039,18.99854c15.87264,-1.20174 30.40388,-7.20527 42.14542,-16.56058c-1.89485,-6.36216 -6.05698,-14.91573 -14.93987,-17.08645zm-32.88495,14.64848l-0.43276,0l-2.32762,-4.52248l-2.219,3.10866l-9.09151,-15.15194c-6.21561,0.05345 -15.32953,0.28966 -17.9037,0.93277l-0.13276,0.02586c-6.81044,0.91036 -11.84499,10.50704 -14.99849,18.96751c12.495,9.56565 28.0004,15.39849 44.84719,15.83298l2.25865,-19.19337z"/>
   <path stroke="null" p-id="13512" fill="#132D65" d="m252.56946,444.30798c-2.69831,-0.67415 -11.93465,-1.33105 -17.88474,-1.6983l1.30174,1.04139l-0.83794,1.39657c5.8725,0.36897 14.42089,0.98794 16.84507,1.59313c8.88288,2.17072 13.04501,10.72429 14.94159,17.08645c0.69139,-0.55001 1.37243,-1.11381 2.04486,-1.68623c-2.16727,-6.77768 -6.77423,-15.3778 -16.41058,-17.73301zm-65.56817,1.37416l0.13276,-0.02586c2.5759,-0.64311 11.6881,-0.87932 17.9037,-0.93277l-0.64311,-1.07243l1.66899,-1.33623c-4.45179,0.02931 -16.05367,0.18276 -19.44683,0.99484c-7.71045,1.0845 -13.19157,10.94671 -16.59679,19.77097c0.65173,0.53449 1.31209,1.05691 1.98106,1.57071c3.15522,-8.46219 8.18977,-18.05888 15.00021,-18.96923z"/>
   <path stroke="null" p-id="13513" fill="#E3F0FC" d="m207.53434,444.21488l6.76906,11.28119l2.89314,-4.05178c-1.5345,-1.43623 -4.83972,-4.82593 -7.08976,-9.28634l-2.57245,2.05693z"/>
   <path stroke="null" p-id="13514" fill="#132D65" d="m204.39464,443.65107l0.64311,1.07243l9.09151,15.15021l2.219,-3.10866l-0.51208,-0.99484l4.2742,-4.2742l0.07931,-0.11207l-0.23276,-0.32587l0.23449,-0.19483l-0.6207,-0.51897c-0.03793,-0.03276 -2.80004,-2.36555 -5.31042,-5.94664c-0.44483,-0.63622 -0.88277,-1.31036 -1.29485,-2.01899c-0.26035,-0.44828 -0.51208,-0.90863 -0.75001,-1.38278c-0.19828,-0.39483 -0.38621,-0.79484 -0.56208,-1.20519l-0.62242,-1.45174l-2.20693,1.76554l-2.75866,2.20693l-1.67071,1.33967zm12.8019,7.79321l-2.89314,4.05178l-6.76906,-11.28119l2.57245,-2.05693c2.25003,4.46041 5.55525,7.85011 7.08976,9.28634z"/>
   <path stroke="null" p-id="13515" fill="#E3F0FC" d="m232.84677,444.21488l-2.57073,-2.05693c-2.25176,4.46041 -5.55525,7.85011 -7.09148,9.28634l2.89314,4.05178l6.76906,-11.28119z"/>
   <path stroke="null" p-id="13516" fill="#132D65" d="m229.43293,438.4079l-0.08276,-0.06552l-0.03966,0.0931l-0.58104,1.35692c-0.19828,0.46035 -0.41207,0.91036 -0.63622,1.35174a25.69864,25.69864 0 0 1 -0.99484,1.77071c-0.43104,0.70173 -0.88105,1.36726 -1.33623,1.98968c-2.40693,3.29315 -4.91386,5.41042 -4.95007,5.43973l-0.6207,0.51897l-0.23449,0.19483l0.23276,0.32587l0.01379,0.01897l0.17759,-0.17759l4.54489,4.54489l-0.6707,1.30347l2.00003,2.79832l8.89668,-14.82607l0.83794,-1.39657l-1.30174,-1.04139l-2.8897,-2.3121l-2.36555,-1.88796zm-6.24836,13.03639c1.5345,-1.43623 4.83972,-4.82593 7.09148,-9.28634l2.57073,2.05693l-6.76734,11.28119l-2.89487,-4.05178z"/>
   <path stroke="null" p-id="13517" fill="#152E66" d="m224.92424,455.77194l-4.54489,-4.54489l-0.17586,0.17759l-0.0931,0.0931l-4.2742,4.2742l0.51208,0.99312l2.32762,4.5242l0.43276,0l0.07069,-0.60173l2.40176,0l0.09828,0.60173l0.40518,0l2.169,-4.21385l0.6707,-1.30347z"/>
   <path stroke="null" p-id="13518" fill="#152E66" d="m221.67937,461.28925l-0.09828,-0.60001l-2.40348,0l-0.07069,0.60001l-2.25865,19.1951a78.8818,78.8818 0 0 0 7.93977,-0.19655l-3.10866,-18.99854z"/>
   <path stroke="null" p-id="13519" opacity="0.33" fill="#E3F0FC" d="m214.8741,422.05594l-19.54166,0c-1.40347,0 -2.54314,-1.13795 -2.54314,-2.54314l0,-11.13292c0,-1.40347 1.13795,-2.54314 2.54314,-2.54314l19.54166,0c1.40347,0 2.54314,1.13795 2.54314,2.54314l0,11.13292c0,1.40519 -1.13795,2.54314 -2.54314,2.54314z"/>
   <path stroke="null" p-id="13520" opacity="0.33" fill="#E3F0FC" d="m244.90728,422.05594l-19.54166,0c-1.40347,0 -2.54314,-1.13795 -2.54314,-2.54314l0,-11.13292c0,-1.40347 1.13795,-2.54314 2.54314,-2.54314l19.54166,0c1.40347,0 2.54314,1.13795 2.54314,2.54314l0,11.13292c0,1.40519 -1.13795,2.54314 -2.54314,2.54314z"/>
   <path stroke="null" p-id="13521" fill="#132D65" d="m214.8741,422.65767l-19.54166,0c-1.73278,0 -3.14315,-1.41036 -3.14315,-3.14315l0,-11.13292c0,-1.73278 1.41036,-3.14315 3.14315,-3.14315l19.54166,0c1.73278,0 3.14315,1.41036 3.14315,3.14315l0,11.13292c0,1.73278 -1.40864,3.14315 -3.14315,3.14315zm-19.54166,-16.21747c-1.0707,0 -1.94141,0.8707 -1.94141,1.94141l0,11.13292c0,1.0707 0.8707,1.94141 1.94141,1.94141l19.54166,0c1.0707,0 1.94141,-0.8707 1.94141,-1.94141l0,-11.13292c0,-1.0707 -0.8707,-1.94141 -1.94141,-1.94141l-19.54166,0zm49.57484,16.21747l-19.54166,0c-1.73278,0 -3.14315,-1.41036 -3.14315,-3.14315l0,-11.13292c0,-1.73278 1.41036,-3.14315 3.14315,-3.14315l19.54166,0c1.73278,0 3.14315,1.41036 3.14315,3.14315l0,11.13292c0,1.73278 -1.40864,3.14315 -3.14315,3.14315zm-19.54166,-16.21747c-1.0707,0 -1.94141,0.8707 -1.94141,1.94141l0,11.13292c0,1.0707 0.8707,1.94141 1.94141,1.94141l19.54166,0c1.0707,0 1.94141,-0.8707 1.94141,-1.94141l0,-11.13292c0,-1.0707 -0.8707,-1.94141 -1.94141,-1.94141l-19.54166,0z"/>
   <path stroke="null" p-id="13522" fill="#132D65" d="m217.41724,408.24195l5.40525,0l0,1.20174l-5.40525,0l0,-1.20174z"/>
  </g>
 </g>
</svg>